<svg width="15" height="10" viewBox="0 0 15 10" fill="none" xmlns="http://www.w3.org/2000/svg">
<path d="M14.2914 8.59995V1.39995C14.2914 0.735951 13.7557 0.199951 13.0921 0.199951H1.8907C1.22709 0.199951 0.691406 0.735951 0.691406 1.39995V8.59995C0.691406 9.26395 1.22709 9.79995 1.8907 9.79995H13.0921C13.7557 9.79995 14.2914 9.26395 14.2914 8.59995ZM13.244 1.31195C13.5079 1.57595 13.364 1.84795 13.22 1.98395L9.97395 4.95995L13.0921 8.20795C13.1881 8.31995 13.252 8.49595 13.1401 8.61595C13.0361 8.74395 12.7963 8.73595 12.6923 8.65595L9.1984 5.67195L7.48741 7.23195L5.78441 5.67195L2.29047 8.65595C2.18653 8.73595 1.94667 8.74395 1.84273 8.61595C1.73079 8.49595 1.79476 8.31995 1.8907 8.20795L5.00887 4.95995L1.76278 1.98395C1.61886 1.84795 1.47495 1.57595 1.73879 1.31195C2.00263 1.04795 2.27447 1.17595 2.49834 1.36795L7.48741 5.39995L12.4845 1.36795C12.7083 1.17595 12.9802 1.04795 13.244 1.31195V1.31195Z" fill="black"/>
</svg>
