<svg width="12" height="12" viewBox="0 0 12 12" fill="none" xmlns="http://www.w3.org/2000/svg">
<path d="M11.4406 1.89612L9.88966 0.346602C9.78025 0.236714 9.65021 0.149525 9.50701 0.0900444C9.36381 0.0305635 9.21027 -3.71645e-05 9.0552 3.38731e-08C8.73919 3.38731e-08 8.44211 0.123786 8.2193 0.346602L6.55039 2.01553C6.4405 2.12494 6.35331 2.25498 6.29383 2.39819C6.23435 2.54139 6.20375 2.69493 6.20379 2.85C6.20379 3.16602 6.32758 3.46311 6.55039 3.68592L7.77076 4.90631C7.4851 5.53596 7.08794 6.10877 6.59845 6.59709C6.11018 7.08777 5.53743 7.48639 4.90769 7.77379L3.68732 6.5534C3.57792 6.44351 3.44788 6.35632 3.30468 6.29684C3.16148 6.23736 3.00793 6.20676 2.85287 6.2068C2.53686 6.2068 2.23977 6.33058 2.01696 6.5534L0.346598 8.22087C0.236576 8.33048 0.149314 8.46077 0.0898311 8.60423C0.0303484 8.74769 -0.000180462 8.90149 8.02468e-07 9.0568C8.02468e-07 9.37282 0.123785 9.6699 0.346598 9.89272L1.89463 11.4408C2.24997 11.7976 2.74074 12 3.24461 12C3.35092 12 3.45286 11.9913 3.55335 11.9738C5.51642 11.6505 7.46348 10.6063 9.03482 9.03641C10.6047 7.46796 11.6474 5.52233 11.9751 3.5534C12.0741 2.95194 11.8746 2.33301 11.4406 1.89612V1.89612Z" fill="black"/>
</svg>
