<svg width="15" height="14" viewBox="0 0 15 14" fill="none" xmlns="http://www.w3.org/2000/svg">
<path d="M2.9696 2H0.526893C0.24621 2 -0.0344732 2.32 0.00345701 2.84L1.18688 12.83C1.18688 12.83 2.59029 5.47 2.86339 3.7C2.94684 3.17 3.32614 3 3.60682 3H7.52122C7.52122 3 6.9902 0.92 6.93709 0.69C6.84606 0.25 6.67917 0 6.34538 0H3.8344C3.56131 0 3.30338 0.23 3.22752 0.64C3.15925 1.04 2.9696 2 2.9696 2ZM6.67158 2H3.63717C3.63717 2 3.95578 1 4.29715 1H5.91298C6.27711 1 6.67158 2 6.67158 2ZM1.96065 13.25C1.72549 13.72 1.38412 14 1.00481 14H12.9376C13.3473 14 13.6356 13.69 13.719 13.17C14.0528 10.98 14.9935 4.73 14.9935 4.73C15.0466 4.23 14.7659 4 14.5231 4H12.0728V2.53C12.0728 2.37 11.8756 2 11.5722 2H8.71981C8.32534 2 8.05983 2.58 8.05983 2.58L7.52122 4H4.17578C3.93302 4 3.69786 4.19 3.65234 4.5C3.65234 4.5 2.44616 11.2 2.34754 11.83C2.29444 12.2 2.18065 12.82 1.96065 13.25V13.25ZM11.6025 4H8.27982C8.27982 4 8.71981 3 9.13704 3H10.8742C11.4129 3 11.6025 4 11.6025 4V4Z" fill="black"/>
</svg>
